<svg width="25" height="31" viewBox="0 0 25 31" fill="none" xmlns="http://www.w3.org/2000/svg">
<path d="M12.1345 30.1527L5.69922 22.0656C4.42646 20.4661 3.5597 18.4282 3.20856 16.2097C2.85741 13.9911 3.03764 11.6916 3.72646 9.60177C4.41528 7.51196 5.58176 5.72577 7.07837 4.46908C8.57499 3.21238 10.3345 2.54163 12.1345 2.54163C13.9345 2.54163 15.694 3.21238 17.1906 4.46908C18.6872 5.72577 19.8537 7.51196 20.5425 9.60177C21.2313 11.6916 21.4116 13.9911 21.0604 16.2097C20.7093 18.4282 19.8425 20.4661 18.5698 22.0656L12.1345 30.1527ZM17.1399 20.2687C18.1298 19.0246 18.8039 17.4396 19.0769 15.7141C19.35 13.9886 19.2098 12.2001 18.674 10.5747C18.1382 8.94938 17.231 7.56017 16.067 6.58277C14.9029 5.60538 13.5344 5.0837 12.1345 5.0837C10.7346 5.0837 9.36604 5.60538 8.20202 6.58277C7.038 7.56017 6.13074 8.94938 5.59498 10.5747C5.05921 12.2001 4.91899 13.9886 5.19205 15.7141C5.46512 17.4396 6.1392 19.0246 7.12906 20.2687L12.1345 26.559L17.1399 20.2687V20.2687ZM12.1345 16.5199C11.5981 16.5199 11.0837 16.2522 10.7044 15.7755C10.3252 15.2989 10.1121 14.6525 10.1121 13.9784C10.1121 13.3044 10.3252 12.6579 10.7044 12.1813C11.0837 11.7046 11.5981 11.4369 12.1345 11.4369C12.6709 11.4369 13.1853 11.7046 13.5645 12.1813C13.9438 12.6579 14.1569 13.3044 14.1569 13.9784C14.1569 14.6525 13.9438 15.2989 13.5645 15.7755C13.1853 16.2522 12.6709 16.5199 12.1345 16.5199Z" fill="white"/>
</svg>
