<svg width="30" height="30" viewBox="0 0 30 30" fill="none" xmlns="http://www.w3.org/2000/svg">
<g clip-path="url(#clip0_33_99)">
<path d="M15.0406 29.3896L7.2922 21.559C5.75973 20.0102 4.71611 18.037 4.29331 15.8888C3.87051 13.7407 4.08752 11.514 4.9169 9.49051C5.74627 7.46698 7.15077 5.73745 8.95277 4.52061C10.7548 3.30378 12.8734 2.6543 15.0406 2.6543C17.2079 2.6543 19.3264 3.30378 21.1284 4.52061C22.9305 5.73745 24.3349 7.46698 25.1643 9.49051C25.9937 11.514 26.2107 13.7407 25.7879 15.8888C25.3651 18.037 24.3215 20.0102 22.789 21.559L15.0406 29.3896ZM21.0674 19.8191C22.2593 18.6145 23.0709 17.0798 23.3997 15.409C23.7285 13.7382 23.5596 12.0064 22.9145 10.4326C22.2694 8.8588 21.1771 7.51366 19.7755 6.56727C18.374 5.62087 16.7262 5.11574 15.0406 5.11574C13.355 5.11574 11.7072 5.62087 10.3057 6.56727C8.90416 7.51366 7.81178 8.8588 7.16668 10.4326C6.52159 12.0064 6.35276 13.7382 6.68154 15.409C7.01033 17.0798 7.82195 18.6145 9.0138 19.8191L15.0406 25.9099L21.0674 19.8191V19.8191ZM15.0406 16.1892C14.3948 16.1892 13.7754 15.93 13.3188 15.4685C12.8621 15.0069 12.6055 14.381 12.6055 13.7283C12.6055 13.0756 12.8621 12.4497 13.3188 11.9882C13.7754 11.5267 14.3948 11.2674 15.0406 11.2674C15.6864 11.2674 16.3058 11.5267 16.7625 11.9882C17.2191 12.4497 17.4757 13.0756 17.4757 13.7283C17.4757 14.381 17.2191 15.0069 16.7625 15.4685C16.3058 15.93 15.6864 16.1892 15.0406 16.1892Z" fill="white"/>
</g>
<defs>
<clipPath id="clip0_33_99">
<rect width="29.2209" height="29.531" fill="white" transform="translate(0.430176 0.193359)"/>
</clipPath>
</defs>
</svg>
