<svg width="168" height="35" viewBox="0 0 168 35" fill="none" xmlns="http://www.w3.org/2000/svg">
<path d="M10.1727 6.83203H12.4447V1.81216C12.0527 1.74375 10.7047 1.58984 9.1347 1.58984C5.8589 1.58984 3.61489 4.2037 3.61489 9.00784V13.4292H0V19.041H3.61489V33.1614H8.04691V19.0423H11.5156L12.0662 13.4305H8.04587V9.56429C8.04691 7.9423 8.39119 6.83203 10.1727 6.83203V6.83203Z" fill="white"/>
<path d="M90.2463 6.54918C89.2203 7.12012 88.1271 7.49855 86.9873 7.6823C88.1599 6.79418 89.0548 5.39855 89.4755 3.71637C88.3823 4.54324 87.1752 5.1273 85.8889 5.45324C84.8508 4.05105 83.3713 3.18262 81.7573 3.18262C78.6258 3.18262 76.1048 6.40699 76.1048 10.3598C76.1048 10.9286 76.1427 11.4754 76.2358 11.9961C71.5334 11.7051 67.3725 8.84605 64.5773 4.49074C64.0893 5.5648 63.8031 6.79418 63.8031 8.11762C63.8031 10.6026 64.8118 12.8054 66.3155 14.0807C65.4067 14.0589 64.5152 13.7242 63.76 13.197C63.76 13.2189 63.76 13.2473 63.76 13.2757C63.76 16.7626 65.7206 19.6589 68.2916 20.3261C67.8312 20.4857 67.3294 20.5623 66.8087 20.5623C66.4465 20.5623 66.081 20.5361 65.7378 20.4398C66.4707 23.2814 68.5503 25.3704 71.023 25.4382C69.0986 27.3479 66.6552 28.4986 64.01 28.4986C63.5461 28.4986 63.1013 28.4723 62.6564 28.4001C65.1619 30.4498 68.1313 31.6201 71.3334 31.6201C81.7417 31.6201 87.4322 20.6826 87.4322 11.202C87.4322 10.8848 87.4235 10.5786 87.4115 10.2745C88.534 9.26387 89.4773 8.00168 90.2463 6.54918Z" fill="white"/>
<path fill-rule="evenodd" clip-rule="evenodd" d="M149.032 0H159.378C164.139 0 168 4.89781 168 10.9375V24.0625C168 30.1022 164.139 35 159.378 35H149.032C144.271 35 140.41 30.1022 140.41 24.0625V10.9375C140.41 4.89781 144.271 0 149.032 0ZM159.378 31.7179C162.706 31.7179 165.413 28.2835 165.413 24.0616V10.9366C165.413 6.71477 162.706 3.2804 159.378 3.2804H149.032C145.704 3.2804 142.997 6.71477 142.997 10.9366V24.0616C142.997 28.2835 145.704 31.7179 149.032 31.7179H159.378Z" fill="white"/>
<path fill-rule="evenodd" clip-rule="evenodd" d="M147.307 17.499C147.307 12.6668 150.396 8.74902 154.205 8.74902C158.014 8.74902 161.102 12.6668 161.102 17.499C161.102 22.3312 158.014 26.249 154.205 26.249C150.396 26.249 147.307 22.3312 147.307 17.499ZM149.894 17.4982C149.894 20.5126 151.829 22.967 154.205 22.967C156.581 22.967 158.516 20.5126 158.516 17.4982C158.516 14.4817 156.581 12.0295 154.205 12.0295C151.829 12.0295 149.894 14.4817 149.894 17.4982Z" fill="white"/>
<ellipse cx="161.62" cy="8.09367" rx="0.919091" ry="1.16594" fill="white"/>
</svg>
