<svg width="29" height="29" viewBox="0 0 29 29" fill="none" xmlns="http://www.w3.org/2000/svg">
<g clip-path="url(#clip0_33_128)">
<path d="M2.41675 10.8678C2.41611 9.91584 2.60326 8.97314 2.96747 8.09365C3.33168 7.21416 3.8658 6.41515 4.53925 5.74238C5.21269 5.0696 6.01224 4.53628 6.89209 4.17295C7.77195 3.80962 8.71483 3.62342 9.66675 3.62501H19.3334C23.3366 3.62501 26.5834 6.88147 26.5834 10.8678V25.375H9.66675C5.66354 25.375 2.41675 22.1186 2.41675 18.1323V10.8678ZM24.1667 22.9583V10.8678C24.1636 9.58753 23.6531 8.36076 22.7471 7.45617C21.8412 6.55159 20.6136 6.04295 19.3334 6.04168H9.66675C9.03219 6.04009 8.40356 6.16378 7.81691 6.40566C7.23026 6.64754 6.69712 7.00285 6.24808 7.45122C5.79905 7.89958 5.44294 8.43218 5.20017 9.01847C4.95741 9.60476 4.83278 10.2332 4.83342 10.8678V18.1323C4.83661 19.4125 5.34709 20.6393 6.25304 21.5438C7.15898 22.4484 8.38652 22.9571 9.66675 22.9583H24.1667ZM16.9167 13.2917H19.3334V15.7083H16.9167V13.2917ZM9.66675 13.2917H12.0834V15.7083H9.66675V13.2917Z" fill="white"/>
</g>
<defs>
<clipPath id="clip0_33_128">
<rect width="29" height="29" fill="white"/>
</clipPath>
</defs>
</svg>
