<svg width="29" height="30" viewBox="0 0 29 30" fill="none" xmlns="http://www.w3.org/2000/svg">
<g clip-path="url(#clip0_33_111)">
<path d="M11.3173 13.3525C12.4511 15.4131 14.1007 17.1196 16.0926 18.2925L17.1608 16.745C17.3325 16.4962 17.5865 16.3211 17.8746 16.2529C18.1628 16.1847 18.4651 16.2282 18.7243 16.375C20.4333 17.3412 22.3206 17.9222 24.2621 18.08C24.5651 18.1048 24.848 18.2469 25.0542 18.4779C25.2605 18.7089 25.375 19.0118 25.375 19.3263V24.9038C25.3751 25.2132 25.2641 25.5118 25.0637 25.7415C24.8632 25.9713 24.5875 26.1159 24.2899 26.1475C23.6495 26.2162 23.0043 26.25 22.3542 26.25C12.0108 26.25 3.625 17.575 3.625 6.875C3.625 6.2025 3.65763 5.535 3.72408 4.8725C3.7546 4.56462 3.89444 4.2794 4.11654 4.07204C4.33864 3.86468 4.6272 3.74993 4.92638 3.75H10.318C10.6219 3.74996 10.9147 3.86844 11.138 4.08181C11.3613 4.29519 11.4987 4.58778 11.5227 4.90125C11.6752 6.90974 12.2369 8.8621 13.1708 10.63C13.3128 10.8982 13.3548 11.2109 13.2888 11.509C13.2229 11.8071 13.0537 12.0698 12.8132 12.2475L11.3173 13.3525V13.3525ZM8.26983 12.5312L10.5657 10.835C9.91411 9.38012 9.46772 7.83605 9.24012 6.25H6.05375C6.0465 6.4575 6.04287 6.66625 6.04287 6.875C6.04167 16.195 13.3448 23.75 22.3542 23.75C22.556 23.75 22.7578 23.7462 22.9583 23.7375V20.4413C21.4252 20.2058 19.9326 19.744 18.5262 19.07L16.8865 21.445C16.2263 21.1796 15.5851 20.8664 14.9676 20.5075L14.8975 20.4662C12.5275 19.0709 10.5648 17.0405 9.21596 14.5887L9.17608 14.5162C8.82918 13.8775 8.52634 13.2142 8.26983 12.5312V12.5312Z" fill="white"/>
</g>
<defs>
<clipPath id="clip0_33_111">
<rect width="29" height="30" fill="white"/>
</clipPath>
</defs>
</svg>
